<?xml version="1.0" encoding="utf-8"?>
<!-- Svg Vector Icons : http://www.onlinewebfonts.com/icon -->
<!DOCTYPE svg PUBLIC "-//W3C//DTD SVG 1.1//EN" "http://www.w3.org/Graphics/SVG/1.1/DTD/svg11.dtd">
<svg version="1.1" xmlns="http://www.w3.org/2000/svg" xmlns:xlink="http://www.w3.org/1999/xlink" x="0px" y="0px" viewBox="0 0 1000 1000" enable-background="new 0 0 1000 1000" xml:space="preserve">
<metadata> Svg Vector Icons : http://www.onlinewebfonts.com/icon </metadata>
<g><g transform="translate(0.000000,511.000000) scale(0.100000,-0.100000)"><path d="M1544.2,2739.2c-95.9-58.4-112.6-133.4-112.6-515v-341.9H837.5H243.3l-66.7-60.5l-68.8-60.5l-6.3-2041.1c-4.2-1440.7,0-2062,16.7-2118.2c14.6-52.1,45.9-93.8,89.6-118.8c64.6-41.7,145.9-41.7,4784.8-41.7c5233.1,0,4811.9-12.5,4874.5,135.5c43.8,106.3,43.8,4063.5,0,4167.7c-56.3,137.6-62.5,137.6-715.1,137.6h-590v344c0,252.3-8.3,364.9-29.2,417c-58.4,137.6-29.2,135.5-1315.6,135.5c-1246.8,0-1242.6,0-1298.9-108.4c-16.7-31.3-27.1-177.2-31.3-412.8l-4.2-364.9h-886.1h-886.1l-10.4,375.3c-6.3,206.4-18.8,392-29.2,412.8c-45.9,95.9-62.5,98-1298.9,98C1665.2,2778.8,1604.7,2776.7,1544.2,2739.2z M3662.5,2111.6v-229.3h-886.1h-886.1v229.3V2341h886.1h886.1V2111.6z M8103.3,2111.6v-229.3h-886.1h-886.1v229.3V2341h886.1h886.1V2111.6z"/></g></g>
</svg>